<?xml version="1.0" standalone="no"?>
<!DOCTYPE svg PUBLIC "-//W3C//DTD SVG 1.1//EN"
 "http://www.w3.org/Graphics/SVG/1.1/DTD/svg11.dtd">
<!-- Created with svg_stack (http://github.com/astraw/svg_stack) -->
<svg xmlns:sodipodi="http://sodipodi.sourceforge.net/DTD/sodipodi-0.dtd" xmlns="http://www.w3.org/2000/svg" version="1.1" width="267.0" height="267.0">
  <defs/>
  <g id="id0:id0" transform="matrix(1.25,0,0,1.25,0.0,0.0)"><g transform="translate(0.000000,213.600000) scale(0.040000,-0.040000)" fill="#6db7ba" stroke="none">
</g>
</g>
  <g id="id1:id1" transform="matrix(1.25,0,0,1.25,0.0,0.0)"><g transform="translate(0.000000,213.600000) scale(0.040000,-0.040000)" fill="#6db7ba" stroke="none">
</g>
</g>
  <g id="id2:id2" transform="matrix(1.25,0,0,1.25,0.0,0.0)"><g transform="translate(0.000000,213.600000) scale(0.040000,-0.040000)" fill="#6cb7ba" stroke="none">
</g>
</g>
  <g id="id3:id3" transform="matrix(1.25,0,0,1.25,0.0,0.0)"><g transform="translate(0.000000,213.600000) scale(0.040000,-0.040000)" fill="#ffffff" stroke="none">
<path d="M2385 3965 c-404 -47 -759 -178 -1076 -398 -149 -104 -302 -250 -399 -382 -24 -33 -47 -62 -50 -65 -4 -3 -25 -39 -47 -80 -22 -41 -50 -91 -61 -110 -11 -19 -28 -57 -37 -85 -9 -27 -23 -64 -31 -82 -8 -17 -14 -36 -14 -42 0 -6 -4 -19 -9 -29 -18 -35 -33 -120 -46 -250 -10 -108 -10 -156 0 -265 13 -129 28 -214 46 -249 5 -10 9 -23 9 -29 0 -6 6 -25 14 -42 8 -18 22 -54 31 -82 9 -27 26 -66 37 -85 11 -19 39 -69 61 -110 22 -41 43 -77 47 -80 3 -3 26 -32 50 -65 225 -307 615 -565 1046 -693 454 -135 974 -135 1428 0 431 128 821 386 1046 693 24 33 47 62 50 65 10 8 104 181 152 282 4 10 8 27 8 37 0 11 4 22 9 26 5 3 13 20 17 37 3 18 10 39 14 48 17 34 33 122 45 247 10 109 10 157 0 265 -13 130 -28 215 -46 250 -5 10 -9 23 -9 29 0 6 -6 25 -14 42 -8 18 -22 55 -31 82 -9 28 -26 66 -37 85 -11 19 -39 69 -61 110 -22 41 -43 77 -47 80 -3 3 -26 32 -50 65 -222 303 -608 560 -1033 690 -304 92 -693 127 -1012 90z m364 -396 l31 -23 0 -501 0 -502 49 -23 c58 -27 101 -68 131 -128 28 -54 24 -134 -8 -179 -12 -17 -22 -36 -22 -41 0 -6 21 -26 48 -46 46 -35 64 -49 212 -171 40 -33 90 -73 111 -90 116 -93 148 -118 190 -152 132 -108 298 -242 337 -273 67 -52 71 -63 36 -94 -34 -30 -56 -33 -75 -9 -8 9 -36 33 -64 54 -27 22 -71 56 -96 76 -180 148 -296 242 -324 263 -31 23 -137 110 -313 255 -41 33 -91 72 -111 87 l-38 27 -64 -20 c-85 -27 -173 -22 -257 16 -57 26 -132 91 -132 115 0 6 -143 10 -408 10 -224 0 -422 4 -440 9 -46 14 -67 38 -67 81 0 43 21 67 67 81 18 5 216 9 439 9 l406 0 14 26 c13 25 12 28 -15 48 -16 12 -52 40 -79 64 -28 23 -54 42 -59 42 -4 0 -8 9 -8 19 0 11 15 28 36 40 l35 21 44 -30 c24 -17 47 -35 50 -40 3 -5 26 -24 51 -41 41 -28 48 -30 75 -19 l29 12 0 503 0 503 28 18 c15 11 34 22 42 26 26 13 87 1 119 -23z"/>
</g>
</g>
  <g id="id4:id4" transform="matrix(1.25,0,0,1.25,0.0,0.0)"><g transform="translate(0.000000,213.600000) scale(0.040000,-0.040000)" fill="#d2e4e5" stroke="none">
<path d="M2603 3983 c37 -2 97 -2 135 0 37 2 6 3 -68 3 -74 0 -105 -1 -67 -3z"/>
<path d="M2350 3970 c-21 -5 -1 -6 50 -3 47 3 87 7 89 9 8 7 -103 2 -139 -6z"/>
<path d="M2851 3976 c2 -2 42 -6 89 -9 61 -4 74 -3 45 3 -40 9 -142 13 -134 6z"/>
<path d="M2220 3950 c-17 -6 -9 -7 25 -3 28 3 52 7 54 9 8 7 -54 2 -79 -6z"/>
<path d="M3041 3956 c2 -2 27 -6 54 -9 34 -4 42 -3 25 3 -25 8 -87 13 -79 6z"/>
<path d="M2120 3930 c-20 -6 -21 -8 -5 -8 11 0 34 4 50 8 27 7 27 8 5 8 -14 0 -36 -4 -50 -8z"/>
<path d="M3175 3930 c17 -4 39 -8 50 -8 16 0 15 2 -5 8 -14 4 -36 8 -50 8 -22 0 -22 -1 5 -8z"/>
<path d="M2035 3910 c-25 -11 1 -11 35 0 20 6 21 8 5 8 -11 0 -29 -3 -40 -8z"/>
<path d="M3270 3910 c34 -11 60 -11 35 0 -11 5 -29 8 -40 8 -16 0 -15 -2 5 -8z"/>
<path d="M1965 3890 c-13 -5 -14 -9 -5 -9 8 0 24 4 35 9 13 5 14 9 5 9 -8 0 -24 -4 -35 -9z"/>
<path d="M3345 3890 c11 -5 27 -9 35 -9 9 0 8 4 -5 9 -11 5 -27 9 -35 9 -9 0 -8 -4 5 -9z"/>
<path d="M1900 3870 c-18 -12 -2 -12 25 0 13 6 15 9 5 9 -8 0 -22 -4 -30 -9z"/>
<path d="M3415 3870 c27 -12 43 -12 25 0 -8 5 -22 9 -30 9 -10 0 -8 -3 5 -9z"/>
<path d="M1840 3850 c-18 -12 -2 -12 25 0 13 6 15 9 5 9 -8 0 -22 -4 -30 -9z"/>
<path d="M3475 3850 c27 -12 43 -12 25 0 -8 5 -22 9 -30 9 -10 0 -8 -3 5 -9z"/>
<path d="M1786 3831 c-4 -5 3 -7 14 -4 23 6 26 13 6 13 -8 0 -17 -4 -20 -9z"/>
<path d="M3520 3836 c0 -2 9 -6 20 -9 11 -3 18 -1 14 4 -5 9 -34 13 -34 5z"/>
<path d="M1740 3810 c-8 -5 -10 -10 -5 -10 6 0 17 5 25 10 8 5 11 10 5 10 -5 0 -17 -5 -25 -10z"/>
<path d="M3580 3810 c8 -5 20 -10 25 -10 6 0 3 5 -5 10 -8 5 -19 10 -25 10 -5 0 -3 -5 5 -10z"/>
<path d="M1686 3791 c-4 -5 3 -7 14 -4 23 6 26 13 6 13 -8 0 -17 -4 -20 -9z"/>
<path d="M3620 3796 c0 -2 9 -6 20 -9 11 -3 18 -1 14 4 -5 9 -34 13 -34 5z"/>
<path d="M1645 3770 c-3 -5 -2 -10 4 -10 5 0 13 5 16 10 3 6 2 10 -4 10 -5 0 -13 -4 -16 -10z"/>
<path d="M3675 3770 c3 -5 11 -10 16 -10 6 0 7 5 4 10 -3 6 -11 10 -16 10 -6 0 -7 -4 -4 -10z"/>
<path d="M1588 3744 c-39 -21 -35 -28 5 -8 37 19 44 24 31 24 -5 -1 -21 -8 -36 -16z"/>
<path d="M3711 3756 c10 -9 69 -36 69 -32 0 6 -55 36 -66 36 -4 0 -5 -2 -3 -4z"/>
<path d="M1508 3704 c-16 -8 -28 -17 -28 -19 0 -6 32 6 55 22 26 18 7 16 -27 -3z"/>
<path d="M3805 3707 c23 -16 55 -28 55 -22 0 6 -56 35 -67 35 -4 0 1 -6 12 -13z"/>
<path d="M1408 3644 c-38 -20 -36 -28 2 -9 17 9 30 18 30 20 0 7 -1 6 -32 -11z"/>
<path d="M3900 3656 c0 -3 14 -12 30 -21 17 -9 30 -13 30 -11 0 3 -13 12 -30 21 -16 9 -30 13 -30 11z"/>
<path d="M1335 3598 c-117 -83 -265 -208 -274 -232 -2 -6 20 12 50 41 65 61 126 111 195 157 29 19 55 39 58 45 10 15 5 14 -29 -11z"/>
<path d="M3975 3611 c4 -7 30 -28 59 -47 68 -46 130 -96 194 -156 28 -27 52 -46 52 -42 0 9 -98 98 -166 152 -72 56 -148 107 -139 93z"/>
<path d="M2653 3593 c9 -2 25 -2 35 0 9 3 1 5 -18 5 -19 0 -27 -2 -17 -5z"/>
<path d="M2587 3567 l-27 -23 3 -504 2 -505 3 502 2 501 31 26 c17 14 27 26 22 26 -4 -1 -20 -11 -36 -23z"/>
<path d="M2739 3564 l31 -26 3 -501 2 -502 3 506 2 505 -30 22 c-40 30 -48 28 -11 -4z"/>
<path d="M996 3304 c-77 -85 -87 -107 -13 -29 37 39 67 73 67 78 0 10 0 10 -54 -49z"/>
<path d="M4290 3352 c0 -4 30 -38 67 -77 37 -38 60 -61 53 -50 -21 30 -120 135 -120 127z"/>
<path d="M876 3156 c-34 -41 -50 -72 -23 -44 22 23 70 88 64 88 -3 0 -22 -20 -41 -44z"/>
<path d="M4446 3165 c34 -47 54 -70 54 -58 0 4 -19 28 -41 53 l-41 45 28 -40z"/>
<path d="M788 3018 c-43 -72 -68 -122 -68 -136 0 -7 28 39 87 146 47 85 34 78 -19 -10z"/>
<path d="M4536 3023 c45 -83 64 -111 64 -96 0 13 -89 163 -96 163 -3 0 12 -30 32 -67z"/>
<path d="M4606 2897 c3 -10 9 -15 12 -12 3 3 0 11 -7 18 -10 9 -11 8 -5 -6z"/>
<path d="M682 2793 c-34 -88 -66 -207 -60 -225 2 -6 10 15 17 48 7 32 17 67 22 76 5 10 9 23 9 29 0 6 6 25 14 42 27 63 39 98 33 103 -3 3 -19 -30 -35 -73z"/>
<path d="M4620 2860 c0 -9 9 -34 36 -97 8 -17 14 -36 14 -42 0 -6 4 -19 9 -29 5 -9 15 -44 22 -76 7 -33 15 -54 17 -48 6 18 -26 137 -60 225 -27 72 -38 91 -38 67z"/>
<path d="M607 2495 c-4 -22 -6 -67 -6 -100 l2 -60 8 75 c11 88 8 149 -4 85z"/>
<path d="M4722 2495 c0 -22 4 -67 8 -100 l7 -60 0 70 c1 39 -3 84 -7 100 -7 28 -8 28 -8 -10z"/>
<path d="M2844 2508 c51 -35 79 -65 101 -109 33 -63 32 -121 0 -178 -33 -57 -32 -66 2 -16 38 55 43 130 13 187 -27 54 -66 96 -105 114 -17 8 -22 9 -11 2z"/>
<path d="M2402 2430 c-18 -29 -15 -38 4 -12 9 13 14 25 12 27 -2 2 -9 -5 -16 -15z"/>
<path d="M1763 2393 c114 -2 300 -2 415 0 114 1 20 2 -208 2 -228 0 -322 -1 -207 -2z"/>
<path d="M1502 2371 c-12 -10 -22 -22 -22 -26 0 -5 10 1 23 12 12 11 29 23 37 26 13 5 13 6 -1 6 -9 1 -26 -7 -37 -18z"/>
<path d="M1472 2310 c0 -14 2 -19 5 -12 2 6 2 18 0 25 -3 6 -5 1 -5 -13z"/>
<path d="M603 2215 c-1 -38 3 -83 7 -100 7 -28 8 -28 8 10 0 22 -4 67 -8 100 l-7 60 0 -70z"/>
<path d="M1480 2275 c0 -13 42 -45 59 -44 14 0 14 1 1 6 -8 3 -25 15 -37 26 -13 11 -23 17 -23 12z"/>
<path d="M4727 2192 c-5 -52 -6 -96 -4 -99 8 -8 19 97 15 147 -2 34 -5 21 -11 -48z"/>
<path d="M1758 2223 c111 -2 293 -2 405 0 111 1 20 2 -203 2 -223 0 -314 -1 -202 -2z"/>
<path d="M2390 2213 c0 -20 60 -83 94 -99 17 -8 23 -9 12 -2 -48 33 -70 54 -87 82 -10 17 -19 26 -19 19z"/>
<path d="M2592 2068 c13 -3 48 -6 78 -6 30 0 65 3 78 6 13 4 -22 7 -78 7 -56 0 -91 -3 -78 -7z"/>
<path d="M621 2047 c-2 -45 84 -305 97 -293 5 5 -7 41 -34 103 -8 17 -14 38 -14 46 0 9 -4 19 -10 22 -5 3 -10 16 -10 28 0 28 -28 118 -29 94z"/>
<path d="M4701 2004 c-7 -32 -16 -66 -21 -74 -4 -9 -11 -30 -14 -48 -4 -17 -12 -34 -17 -37 -5 -4 -9 -16 -9 -29 0 -12 -5 -27 -11 -33 -6 -6 -9 -17 -7 -25 3 -7 18 23 35 67 35 90 67 209 61 227 -2 6 -10 -15 -17 -48z"/>
<path d="M720 1738 c0 -20 105 -208 116 -208 3 0 -10 28 -29 63 -59 106 -87 152 -87 145z"/>
<path d="M4594 1702 c-79 -143 -95 -172 -90 -172 6 0 87 136 104 174 19 42 10 41 -14 -2z"/>
<path d="M840 1513 c0 -4 19 -28 41 -53 l41 -45 -28 40 c-34 47 -54 70 -54 58z"/>
<path d="M4485 1506 c-25 -27 -67 -86 -62 -86 8 0 81 90 76 94 -2 2 -9 -1 -14 -8z"/>
<path d="M930 1395 c21 -30 120 -135 120 -127 0 4 -30 39 -67 77 -37 39 -60 61 -53 50z"/>
<path d="M4355 1344 c-33 -36 -62 -70 -63 -75 -4 -10 94 93 117 124 28 37 3 14 -54 -49z"/>
<path d="M1060 1254 c0 -9 98 -98 166 -152 72 -56 148 -107 139 -93 -4 7 -30 28 -59 47 -68 46 -130 96 -193 156 -29 27 -53 46 -53 42z"/>
<path d="M4235 1218 c-44 -43 -121 -105 -192 -155 -65 -45 -89 -73 -28 -32 95 63 274 214 264 223 -2 2 -22 -14 -44 -36z"/>
<path d="M1380 996 c0 -3 14 -12 30 -21 17 -9 30 -13 30 -11 0 3 -13 12 -30 21 -16 9 -30 13 -30 11z"/>
<path d="M3928 984 c-38 -20 -36 -28 2 -9 17 9 30 18 30 20 0 7 -1 6 -32 -11z"/>
<path d="M1480 935 c0 -6 56 -35 67 -35 10 0 -27 25 -49 33 -10 4 -18 4 -18 2z"/>
<path d="M3822 923 c-18 -8 -31 -18 -28 -20 5 -5 66 25 66 32 0 7 -1 7 -38 -12z"/>
<path d="M1560 895 c0 -7 61 -37 66 -33 2 3 -12 12 -31 21 -19 9 -35 15 -35 12z"/>
<path d="M3740 880 c-19 -11 -31 -19 -27 -20 11 0 67 29 67 35 0 7 -1 7 -40 -15z"/>
<path d="M1645 850 c3 -5 11 -10 16 -10 6 0 7 5 4 10 -3 6 -11 10 -16 10 -6 0 -7 -4 -4 -10z"/>
<path d="M3675 850 c-3 -5 -2 -10 4 -10 5 0 13 5 16 10 3 6 2 10 -4 10 -5 0 -13 -4 -16 -10z"/>
<path d="M1688 828 c5 -5 16 -8 23 -6 8 3 3 7 -10 11 -17 4 -21 3 -13 -5z"/>
<path d="M3635 830 c-16 -7 -17 -9 -3 -9 9 -1 20 4 23 9 7 11 7 11 -20 0z"/>
<path d="M1740 810 c8 -5 20 -10 25 -10 6 0 3 5 -5 10 -8 5 -19 10 -25 10 -5 0 -3 -5 5 -10z"/>
<path d="M3580 810 c-8 -5 -10 -10 -5 -10 6 0 17 5 25 10 8 5 11 10 5 10 -5 0 -17 -5 -25 -10z"/>
<path d="M1788 788 c5 -5 16 -8 23 -6 8 3 3 7 -10 11 -17 4 -21 3 -13 -5z"/>
<path d="M3535 790 c-16 -7 -17 -9 -3 -9 9 -1 20 4 23 9 7 11 7 11 -20 0z"/>
<path d="M1840 770 c8 -5 22 -9 30 -9 10 0 8 3 -5 9 -27 12 -43 12 -25 0z"/>
<path d="M3475 770 c-13 -6 -15 -9 -5 -9 8 0 22 4 30 9 18 12 2 12 -25 0z"/>
<path d="M1900 750 c8 -5 22 -9 30 -9 10 0 8 3 -5 9 -27 12 -43 12 -25 0z"/>
<path d="M3415 750 c-13 -6 -15 -9 -5 -9 8 0 22 4 30 9 18 12 2 12 -25 0z"/>
<path d="M1965 730 c11 -5 27 -9 35 -9 9 0 8 4 -5 9 -11 5 -27 9 -35 9 -9 0 -8 -4 5 -9z"/>
<path d="M3345 730 c-13 -5 -14 -9 -5 -9 8 0 24 4 35 9 13 5 14 9 5 9 -8 0 -24 -4 -35 -9z"/>
<path d="M2035 710 c11 -5 29 -8 40 -8 16 0 15 2 -5 8 -34 11 -60 11 -35 0z"/>
<path d="M3270 710 c-20 -6 -21 -8 -5 -8 11 0 29 3 40 8 25 11 -1 11 -35 0z"/>
<path d="M2120 690 c14 -4 34 -8 45 -8 16 0 15 2 -5 8 -14 4 -34 8 -45 8 -16 0 -15 -2 5 -8z"/>
<path d="M3180 690 l-25 -8 25 0 c14 0 34 3 45 8 l20 9 -20 -1 c-11 0 -31 -4 -45 -8z"/>
<path d="M2220 670 c25 -8 87 -13 79 -6 -2 2 -26 6 -54 9 -34 4 -42 3 -25 -3z"/>
<path d="M3070 670 c-34 -7 -34 -7 -5 -8 17 0 41 4 55 8 33 11 0 11 -50 0z"/>
<path d="M2355 650 c40 -9 142 -13 134 -6 -2 2 -42 6 -89 9 -61 4 -74 3 -45 -3z"/>
<path d="M2900 650 l-55 -7 50 -1 c28 0 68 3 90 7 l40 9 -35 -1 c-19 0 -60 -3 -90 -7z"/>
<path d="M2603 633 c37 -2 97 -2 135 0 37 2 6 3 -68 3 -74 0 -105 -1 -67 -3z"/>
</g>
</g>
  <g id="id5:id5" transform="matrix(1.25,0,0,1.25,0.0,0.0)"><g transform="translate(0.000000,213.600000) scale(0.040000,-0.040000)" fill="#abc9cb" stroke="none">
<path d="M2643 3993 c15 -2 39 -2 55 0 15 2 2 4 -28 4 -30 0 -43 -2 -27 -4z"/>
<path d="M2478 3983 c12 -2 32 -2 45 0 12 2 2 4 -23 4 -25 0 -35 -2 -22 -4z"/>
<path d="M2818 3983 c12 -2 32 -2 45 0 12 2 2 4 -23 4 -25 0 -35 -2 -22 -4z"/>
<path d="M2348 3973 c6 -2 18 -2 25 0 6 3 1 5 -13 5 -14 0 -19 -2 -12 -5z"/>
<path d="M2968 3973 c6 -2 18 -2 25 0 6 3 1 5 -13 5 -14 0 -19 -2 -12 -5z"/>
<path d="M2298 3963 c7 -3 16 -2 19 1 4 3 -2 6 -13 5 -11 0 -14 -3 -6 -6z"/>
<path d="M3028 3963 c7 -3 16 -2 19 1 4 3 -2 6 -13 5 -11 0 -14 -3 -6 -6z"/>
<path d="M2218 3953 c7 -3 16 -2 19 1 4 3 -2 6 -13 5 -11 0 -14 -3 -6 -6z"/>
<path d="M3108 3953 c7 -3 16 -2 19 1 4 3 -2 6 -13 5 -11 0 -14 -3 -6 -6z"/>
<path d="M2118 3933 c7 -3 16 -2 19 1 4 3 -2 6 -13 5 -11 0 -14 -3 -6 -6z"/>
<path d="M3208 3933 c7 -3 16 -2 19 1 4 3 -2 6 -13 5 -11 0 -14 -3 -6 -6z"/>
<path d="M1880 3870 c-8 -5 -10 -10 -5 -10 6 0 17 5 25 10 8 5 11 10 5 10 -5 0 -17 -5 -25 -10z"/>
<path d="M3440 3870 c8 -5 20 -10 25 -10 6 0 3 5 -5 10 -8 5 -19 10 -25 10 -5 0 -3 -5 5 -10z"/>
<path d="M1770 3830 c-9 -6 -10 -10 -3 -10 6 0 15 5 18 10 8 12 4 12 -15 0z"/>
<path d="M3557 3829 c7 -7 15 -10 18 -7 3 3 -2 9 -12 12 -14 6 -15 5 -6 -5z"/>
<path d="M1720 3810 c-8 -5 -10 -10 -5 -10 6 0 17 5 25 10 8 5 11 10 5 10 -5 0 -17 -5 -25 -10z"/>
<path d="M3600 3810 c8 -5 20 -10 25 -10 6 0 3 5 -5 10 -8 5 -19 10 -25 10 -5 0 -3 -5 5 -10z"/>
<path d="M1630 3770 c-9 -6 -10 -10 -3 -10 6 0 15 5 18 10 8 12 4 12 -15 0z"/>
<path d="M3697 3769 c7 -7 15 -10 18 -7 3 3 -2 9 -12 12 -14 6 -15 5 -6 -5z"/>
<path d="M3880 3676 c0 -3 14 -12 30 -21 17 -9 30 -13 30 -11 0 3 -13 12 -30 21 -16 9 -30 13 -30 11z"/>
<path d="M1405 3650 c-3 -6 1 -7 9 -4 18 7 21 14 7 14 -6 0 -13 -4 -16 -10z"/>
<path d="M2648 3583 c12 -2 32 -2 45 0 12 2 2 4 -23 4 -25 0 -35 -2 -22 -4z"/>
<path d="M2592 3557 c-22 -23 -22 -24 -22 -519 0 -494 0 -497 -21 -503 -11 -4 -18 -9 -16 -12 3 -2 15 0 26 7 21 11 21 14 21 507 0 496 0 497 22 520 12 13 19 23 16 23 -2 0 -14 -10 -26 -23z"/>
<path d="M2738 3559 l22 -25 0 -497 c0 -493 0 -496 21 -507 11 -7 23 -9 26 -7 2 3 -5 8 -16 12 -21 6 -21 9 -21 504 l0 498 -27 24 -28 24 23 -26z"/>
<path d="M1199 3503 c-13 -16 -12 -17 4 -4 9 7 17 15 17 17 0 8 -8 3 -21 -13z"/>
<path d="M4120 3516 c0 -2 8 -10 18 -17 15 -13 16 -12 3 4 -13 16 -21 21 -21 13z"/>
<path d="M1114 3428 l-29 -33 33 29 c17 17 32 31 32 33 0 8 -8 1 -36 -29z"/>
<path d="M4190 3457 c0 -2 15 -16 33 -33 l32 -29 -29 33 c-28 30 -36 37 -36 29z"/>
<path d="M995 3308 l-40 -43 43 40 c39 36 47 45 39 45 -2 0 -21 -19 -42 -42z"/>
<path d="M4335 3310 c21 -22 41 -40 44 -40 3 0 -13 18 -34 40 -21 22 -41 40 -44 40 -3 0 13 -18 34 -40z"/>
<path d="M900 3198 c-47 -57 -62 -81 -27 -43 32 35 70 85 65 85 -2 0 -19 -19 -38 -42z"/>
<path d="M4419 3215 c11 -16 35 -46 52 -65 26 -30 28 -30 10 -5 -11 17 -35 46 -52 65 -26 30 -28 30 -10 5z"/>
<path d="M784 3029 c-14 -22 -24 -43 -22 -44 2 -2 16 16 31 40 33 56 26 59 -9 4z"/>
<path d="M4547 3025 c15 -24 29 -42 31 -40 4 4 -46 85 -53 85 -2 0 8 -20 22 -45z"/>
<path d="M4600 2921 c0 -6 4 -13 10 -16 6 -3 7 1 4 9 -7 18 -14 21 -14 7z"/>
<path d="M695 2849 c-4 -6 -5 -12 -2 -15 2 -3 7 2 10 11 7 17 1 20 -8 4z"/>
<path d="M4636 2847 c3 -10 9 -15 12 -12 3 3 0 11 -7 18 -10 9 -11 8 -5 -6z"/>
<path d="M672 2795 c-7 -14 -12 -31 -12 -38 1 -7 7 3 16 22 17 39 13 54 -4 16z"/>
<path d="M4650 2819 c0 -4 7 -22 15 -40 8 -19 14 -27 14 -19 0 14 -28 72 -29 59z"/>
<path d="M646 2725 c-3 -9 -6 -22 -5 -28 0 -7 5 -1 10 12 5 13 8 26 5 28 -2 2 -6 -3 -10 -12z"/>
<path d="M4681 2735 c1 -19 18 -51 18 -35 0 8 -4 22 -9 30 -5 8 -9 11 -9 5z"/>
<path d="M612 2550 c0 -14 2 -19 5 -12 2 6 2 18 0 25 -3 6 -5 1 -5 -13z"/>
<path d="M4722 2550 c0 -14 2 -19 5 -12 2 6 2 18 0 25 -3 6 -5 1 -5 -13z"/>
<path d="M602 2500 c0 -14 2 -19 5 -12 2 6 2 18 0 25 -3 6 -5 1 -5 -13z"/>
<path d="M4732 2500 c0 -14 2 -19 5 -12 2 6 2 18 0 25 -3 6 -5 1 -5 -13z"/>
<path d="M2873 2478 c16 -13 37 -34 48 -48 12 -14 17 -18 13 -10 -11 24 -47 61 -69 72 -11 5 -8 0 8 -14z"/>
<path d="M593 2395 c0 -44 2 -61 4 -37 2 23 2 59 0 80 -2 20 -4 1 -4 -43z"/>
<path d="M4743 2395 c0 -44 2 -61 4 -37 2 23 2 59 0 80 -2 20 -4 1 -4 -43z"/>
<path d="M2947 2385 c4 -11 8 -45 8 -75 0 -30 -4 -64 -8 -75 -5 -11 -2 -9 7 5 8 14 15 45 15 70 0 25 -7 56 -15 70 -9 14 -12 16 -7 5z"/>
<path d="M1753 2383 c115 -2 299 -2 410 0 111 1 18 2 -208 2 -225 0 -316 -1 -202 -2z"/>
<path d="M1502 2357 c-30 -32 -28 -68 6 -98 l27 -24 -22 26 c-31 34 -29 72 3 98 15 12 22 21 17 21 -5 0 -19 -10 -31 -23z"/>
<path d="M593 2225 c0 -44 2 -61 4 -37 2 23 2 59 0 80 -2 20 -4 1 -4 -43z"/>
<path d="M4743 2225 c0 -44 2 -61 4 -37 2 23 2 59 0 80 -2 20 -4 1 -4 -43z"/>
<path d="M1558 2233 c7 -3 16 -2 19 1 4 3 -2 6 -13 5 -11 0 -14 -3 -6 -6z"/>
<path d="M2368 2223 c7 -3 16 -2 19 1 4 3 -2 6 -13 5 -11 0 -14 -3 -6 -6z"/>
<path d="M2430 2167 c14 -16 34 -33 45 -39 21 -11 20 -10 -35 37 l-35 30 25 -28z"/>
<path d="M602 2120 c0 -14 2 -19 5 -12 2 6 2 18 0 25 -3 6 -5 1 -5 -13z"/>
<path d="M4732 2120 c0 -14 2 -19 5 -12 2 6 2 18 0 25 -3 6 -5 1 -5 -13z"/>
<path d="M2540 2090 c8 -5 22 -9 30 -9 10 0 8 3 -5 9 -27 12 -43 12 -25 0z"/>
<path d="M2775 2090 c-13 -6 -15 -9 -5 -9 8 0 22 4 30 9 18 12 2 12 -25 0z"/>
<path d="M612 2070 c0 -14 2 -19 5 -12 2 6 2 18 0 25 -3 6 -5 1 -5 -13z"/>
<path d="M4722 2070 c0 -14 2 -19 5 -12 2 6 2 18 0 25 -3 6 -5 1 -5 -13z"/>
<path d="M2638 2073 c17 -2 47 -2 65 0 17 2 3 4 -33 4 -36 0 -50 -2 -32 -4z"/>
<path d="M641 1920 c0 -8 4 -22 9 -30 12 -18 12 -2 0 25 -6 13 -9 15 -9 5z"/>
<path d="M4691 1923 c-1 -6 -4 -20 -7 -30 -5 -17 -5 -17 6 0 6 10 9 23 6 30 -3 9 -5 9 -5 0z"/>
<path d="M661 1860 c0 -14 28 -72 29 -59 0 4 -7 22 -15 40 -8 19 -14 27 -14 19z"/>
<path d="M4668 1855 c-3 -11 -9 -29 -13 -40 -3 -11 1 -7 10 8 9 16 15 33 12 40 -2 6 -6 3 -9 -8z"/>
<path d="M690 1781 c0 -6 4 -13 10 -16 6 -3 7 1 4 9 -7 18 -14 21 -14 7z"/>
<path d="M4636 1773 c-6 -14 -5 -15 5 -6 7 7 10 15 7 18 -3 3 -9 -2 -12 -12z"/>
<path d="M760 1636 c0 -9 49 -86 55 -86 3 0 -7 19 -21 43 -31 49 -34 53 -34 43z"/>
<path d="M4547 1595 c-14 -25 -24 -45 -22 -45 7 0 57 81 53 85 -2 2 -16 -16 -31 -40z"/>
<path d="M859 1475 c11 -16 35 -46 52 -65 26 -30 28 -30 10 -5 -11 17 -35 46 -52 65 -26 30 -28 30 -10 5z"/>
<path d="M4460 1458 c-47 -57 -62 -81 -27 -43 32 35 70 85 65 85 -2 0 -19 -19 -38 -42z"/>
<path d="M995 1310 c21 -22 41 -40 44 -40 3 0 -13 18 -34 40 -21 22 -41 40 -44 40 -3 0 13 -18 34 -40z"/>
<path d="M4335 1308 l-40 -43 43 40 c39 36 47 45 39 45 -2 0 -21 -19 -42 -42z"/>
<path d="M1081 1218 c2 -2 20 -16 39 -33 l35 -30 -29 33 c-17 17 -34 32 -40 32 -5 0 -7 -1 -5 -2z"/>
<path d="M4214 1188 l-29 -33 35 30 c19 17 37 31 39 33 2 1 0 2 -5 2 -6 0 -23 -15 -40 -32z"/>
<path d="M1190 1126 c0 -2 8 -10 18 -17 15 -13 16 -12 3 4 -13 16 -21 21 -21 13z"/>
<path d="M4129 1113 c-13 -16 -12 -17 4 -4 16 13 21 21 13 21 -2 0 -10 -8 -17 -17z"/>
<path d="M1400 976 c0 -3 14 -12 30 -21 17 -9 30 -13 30 -11 0 3 -13 12 -30 21 -16 9 -30 13 -30 11z"/>
<path d="M3908 964 c-38 -20 -36 -28 2 -9 17 9 30 18 30 20 0 7 -1 6 -32 -11z"/>
<path d="M1540 896 c0 -2 7 -7 16 -10 8 -3 12 -2 9 4 -6 10 -25 14 -25 6z"/>
<path d="M3775 890 c-3 -6 1 -7 9 -4 18 7 21 14 7 14 -6 0 -13 -4 -16 -10z"/>
<path d="M1620 856 c0 -2 7 -7 16 -10 8 -3 12 -2 9 4 -6 10 -25 14 -25 6z"/>
<path d="M3695 850 c-3 -6 1 -7 9 -4 18 7 21 14 7 14 -6 0 -13 -4 -16 -10z"/>
<path d="M1720 810 c8 -5 20 -10 25 -10 6 0 3 5 -5 10 -8 5 -19 10 -25 10 -5 0 -3 -5 5 -10z"/>
<path d="M3600 810 c-8 -5 -10 -10 -5 -10 6 0 17 5 25 10 8 5 11 10 5 10 -5 0 -17 -5 -25 -10z"/>
<path d="M1760 796 c0 -2 7 -7 16 -10 8 -3 12 -2 9 4 -6 10 -25 14 -25 6z"/>
<path d="M3555 790 c-3 -6 1 -7 9 -4 18 7 21 14 7 14 -6 0 -13 -4 -16 -10z"/>
<path d="M1880 750 c8 -5 20 -10 25 -10 6 0 3 5 -5 10 -8 5 -19 10 -25 10 -5 0 -3 -5 5 -10z"/>
<path d="M3440 750 c-8 -5 -10 -10 -5 -10 6 0 17 5 25 10 8 5 11 10 5 10 -5 0 -17 -5 -25 -10z"/>
<path d="M2118 683 c7 -3 16 -2 19 1 4 3 -2 6 -13 5 -11 0 -14 -3 -6 -6z"/>
<path d="M2218 663 c7 -3 16 -2 19 1 4 3 -2 6 -13 5 -11 0 -14 -3 -6 -6z"/>
<path d="M3108 663 c7 -3 16 -2 19 1 4 3 -2 6 -13 5 -11 0 -14 -3 -6 -6z"/>
<path d="M2298 653 c7 -3 16 -2 19 1 4 3 -2 6 -13 5 -11 0 -14 -3 -6 -6z"/>
<path d="M3028 653 c7 -3 16 -2 19 1 4 3 -2 6 -13 5 -11 0 -14 -3 -6 -6z"/>
<path d="M2348 643 c6 -2 18 -2 25 0 6 3 1 5 -13 5 -14 0 -19 -2 -12 -5z"/>
<path d="M2968 643 c6 -2 18 -2 25 0 6 3 1 5 -13 5 -14 0 -19 -2 -12 -5z"/>
<path d="M2478 633 c12 -2 32 -2 45 0 12 2 2 4 -23 4 -25 0 -35 -2 -22 -4z"/>
<path d="M2818 633 c12 -2 32 -2 45 0 12 2 2 4 -23 4 -25 0 -35 -2 -22 -4z"/>
<path d="M2638 623 c17 -2 47 -2 65 0 17 2 3 4 -33 4 -36 0 -50 -2 -32 -4z"/>
</g>
</g>
  <g id="id6:id6" transform="matrix(1.25,0,0,1.25,0.0,0.0)"><g transform="translate(0.000000,213.600000) scale(0.040000,-0.040000)" fill="#82d5d8" stroke="none">
<path d="M3930 5332 c-8 -5 -64 -14 -124 -21 -260 -29 -565 -167 -736 -332 -64 -62 -130 -138 -130 -150 0 -4 28 -21 63 -38 182 -86 279 -131 282 -131 2 0 59 -26 127 -59 67 -32 150 -71 183 -86 33 -15 96 -45 140 -65 44 -21 114 -54 155 -73 41 -19 125 -58 185 -87 61 -28 157 -73 215 -100 58 -26 158 -73 224 -104 65 -31 122 -56 127 -56 26 0 70 78 138 243 40 99 52 293 26 428 -16 85 -20 96 -80 225 -77 161 -238 338 -330 362 -129 33 -433 61 -465 44z"/>
<path d="M2543 3993 c15 -2 39 -2 55 0 15 2 2 4 -28 4 -30 0 -43 -2 -27 -4z"/>
<path d="M2743 3993 c15 -2 39 -2 55 0 15 2 2 4 -28 4 -30 0 -43 -2 -27 -4z"/>
<path d="M2413 3983 c9 -2 25 -2 35 0 9 3 1 5 -18 5 -19 0 -27 -2 -17 -5z"/>
<path d="M2893 3983 c9 -2 25 -2 35 0 9 3 1 5 -18 5 -19 0 -27 -2 -17 -5z"/>
<path d="M2318 3973 c7 -3 16 -2 19 1 4 3 -2 6 -13 5 -11 0 -14 -3 -6 -6z"/>
<path d="M3008 3973 c7 -3 16 -2 19 1 4 3 -2 6 -13 5 -11 0 -14 -3 -6 -6z"/>
<path d="M2258 3963 c6 -2 18 -2 25 0 6 3 1 5 -13 5 -14 0 -19 -2 -12 -5z"/>
<path d="M3058 3963 c6 -2 18 -2 25 0 6 3 1 5 -13 5 -14 0 -19 -2 -12 -5z"/>
<path d="M2148 3943 c6 -2 18 -2 25 0 6 3 1 5 -13 5 -14 0 -19 -2 -12 -5z"/>
<path d="M3168 3943 c6 -2 18 -2 25 0 6 3 1 5 -13 5 -14 0 -19 -2 -12 -5z"/>
<path d="M2068 3923 c7 -3 16 -2 19 1 4 3 -2 6 -13 5 -11 0 -14 -3 -6 -6z"/>
<path d="M3258 3923 c7 -3 16 -2 19 1 4 3 -2 6 -13 5 -11 0 -14 -3 -6 -6z"/>
<path d="M1540 3730 c-9 -6 -10 -10 -3 -10 6 0 15 5 18 10 8 12 4 12 -15 0z"/>
<path d="M3787 3729 c7 -7 15 -10 18 -7 3 3 -2 9 -12 12 -14 6 -15 5 -6 -5z"/>
<path d="M1430 3670 c-9 -6 -10 -10 -3 -10 6 0 15 5 18 10 8 12 4 12 -15 0z"/>
<path d="M1179 3493 c-13 -16 -12 -17 4 -4 9 7 17 15 17 17 0 8 -8 3 -21 -13z"/>
<path d="M4140 3506 c0 -2 8 -10 18 -17 15 -13 16 -12 3 4 -13 16 -21 21 -21 13z"/>
<path d="M1089 3413 l-24 -28 28 24 c25 23 32 31 24 31 -2 0 -14 -12 -28 -27z"/>
<path d="M4240 3415 c13 -14 26 -25 28 -25 3 0 -5 11 -18 25 -13 14 -26 25 -28 25 -3 0 5 -11 18 -25z"/>
<path d="M1005 3328 l-50 -53 53 50 c48 46 57 55 49 55 -1 0 -25 -24 -52 -52z"/>
<path d="M4325 3330 c27 -27 51 -50 54 -50 3 0 -17 23 -44 50 -27 28 -51 50 -54 50 -3 0 17 -22 44 -50z"/>
<path d="M889 3193 c-13 -16 -12 -17 4 -4 9 7 17 15 17 17 0 8 -8 3 -21 -13z"/>
<path d="M4430 3206 c0 -2 8 -10 18 -17 15 -13 16 -12 3 4 -13 16 -21 21 -21 13z"/>
<path d="M820 3095 c-7 -9 -11 -17 -9 -20 3 -2 10 5 17 15 14 24 10 26 -8 5z"/>
<path d="M4511 3093 c7 -12 15 -20 18 -17 3 2 -3 12 -13 22 -17 16 -18 16 -5 -5z"/>
<path d="M785 3049 c-4 -6 -5 -12 -2 -15 2 -3 7 2 10 11 7 17 1 20 -8 4z"/>
<path d="M4546 3047 c3 -10 9 -15 12 -12 3 3 0 11 -7 18 -10 9 -11 8 -5 -6z"/>
<path d="M715 2909 c-4 -6 -5 -12 -2 -15 2 -3 7 2 10 11 7 17 1 20 -8 4z"/>
<path d="M4616 2907 c3 -10 9 -15 12 -12 3 3 0 11 -7 18 -10 9 -11 8 -5 -6z"/>
<path d="M672 2815 c-17 -37 -14 -45 4 -12 9 16 14 31 11 33 -2 2 -9 -7 -15 -21z"/>
<path d="M4651 2835 c0 -5 6 -21 14 -35 8 -14 14 -20 14 -15 0 6 -6 21 -14 35 -8 14 -14 21 -14 15z"/>
<path d="M612 2595 c0 -16 2 -22 5 -12 2 9 2 23 0 30 -3 6 -5 -1 -5 -18z"/>
<path d="M4722 2595 c0 -16 2 -22 5 -12 2 9 2 23 0 30 -3 6 -5 -1 -5 -18z"/>
<path d="M596 2525 c-3 -9 -6 -26 -5 -38 1 -14 4 -9 9 13 9 37 7 52 -4 25z"/>
<path d="M4736 2510 c8 -43 14 -51 14 -19 0 13 -5 31 -10 39 -7 11 -8 5 -4 -20z"/>
<path d="M584 2310 c0 -69 1 -97 3 -62 2 34 2 90 0 125 -2 34 -3 6 -3 -63z"/>
<path d="M4754 2305 c0 -71 1 -99 3 -62 2 37 2 96 0 130 -2 34 -3 4 -3 -68z"/>
<path d="M590 2129 c0 -13 5 -31 10 -39 7 -11 8 -5 4 20 -8 43 -14 51 -14 19z"/>
<path d="M4741 2133 c0 -12 -4 -30 -7 -40 -5 -17 -5 -17 6 0 6 10 9 28 7 40 -4 22 -4 22 -6 0z"/>
<path d="M612 2025 c0 -16 2 -22 5 -12 2 9 2 23 0 30 -3 6 -5 -1 -5 -18z"/>
<path d="M4722 2025 c0 -16 2 -22 5 -12 2 9 2 23 0 30 -3 6 -5 -1 -5 -18z"/>
<path d="M4686 1883 c-6 -14 -5 -15 5 -6 7 7 10 15 7 18 -3 3 -9 -2 -12 -12z"/>
<path d="M660 1838 c0 -13 30 -77 39 -82 5 -4 0 13 -11 36 -21 44 -28 56 -28 46z"/>
<path d="M4653 1795 c-11 -24 -16 -42 -12 -39 10 6 41 75 36 80 -2 2 -13 -16 -24 -41z"/>
<path d="M710 1721 c0 -6 4 -13 10 -16 6 -3 7 1 4 9 -7 18 -14 21 -14 7z"/>
<path d="M4616 1713 c-6 -14 -5 -15 5 -6 7 7 10 15 7 18 -3 3 -9 -2 -12 -12z"/>
<path d="M780 1581 c0 -6 4 -13 10 -16 6 -3 7 1 4 9 -7 18 -14 21 -14 7z"/>
<path d="M4546 1573 c-6 -14 -5 -15 5 -6 7 7 10 15 7 18 -3 3 -9 -2 -12 -12z"/>
<path d="M810 1543 c0 -6 8 -17 18 -24 16 -13 16 -13 2 6 -8 11 -16 22 -17 24 -2 2 -3 0 -3 -6z"/>
<path d="M4511 1527 c-13 -21 -12 -21 5 -5 10 10 16 20 13 22 -3 3 -11 -5 -18 -17z"/>
<path d="M880 1436 c0 -2 8 -10 18 -17 15 -13 16 -12 3 4 -13 16 -21 21 -21 13z"/>
<path d="M4439 1423 c-13 -16 -12 -17 4 -4 16 13 21 21 13 21 -2 0 -10 -8 -17 -17z"/>
<path d="M1005 1290 c27 -27 51 -50 54 -50 3 0 -17 23 -44 50 -27 28 -51 50 -54 50 -3 0 17 -22 44 -50z"/>
<path d="M4325 1288 l-50 -53 53 50 c28 27 52 51 52 52 0 8 -9 -1 -55 -49z"/>
<path d="M1090 1206 c0 -2 8 -10 18 -17 15 -13 16 -12 3 4 -13 16 -21 21 -21 13z"/>
<path d="M4229 1193 c-13 -16 -12 -17 4 -4 16 13 21 21 13 21 -2 0 -10 -8 -17 -17z"/>
<path d="M1170 1136 c0 -2 8 -10 18 -17 15 -13 16 -12 3 4 -13 16 -21 21 -21 13z"/>
<path d="M4149 1123 c-13 -16 -12 -17 4 -4 9 7 17 15 17 17 0 8 -8 3 -21 -13z"/>
<path d="M2148 673 c6 -2 18 -2 25 0 6 3 1 5 -13 5 -14 0 -19 -2 -12 -5z"/>
<path d="M3168 673 c6 -2 18 -2 25 0 6 3 1 5 -13 5 -14 0 -19 -2 -12 -5z"/>
<path d="M2258 653 c6 -2 18 -2 25 0 6 3 1 5 -13 5 -14 0 -19 -2 -12 -5z"/>
<path d="M3058 653 c6 -2 18 -2 25 0 6 3 1 5 -13 5 -14 0 -19 -2 -12 -5z"/>
<path d="M2413 633 c9 -2 25 -2 35 0 9 3 1 5 -18 5 -19 0 -27 -2 -17 -5z"/>
<path d="M2893 633 c9 -2 25 -2 35 0 9 3 1 5 -18 5 -19 0 -27 -2 -17 -5z"/>
<path d="M2543 623 c15 -2 37 -2 50 0 12 2 0 4 -28 4 -27 0 -38 -2 -22 -4z"/>
<path d="M2753 623 c15 -2 37 -2 50 0 12 2 0 4 -28 4 -27 0 -38 -2 -22 -4z"/>
</g>
</g>
  <g id="id7:id7" transform="matrix(1.25,0,0,1.25,0.0,0.0)"><g transform="translate(0.000000,213.600000) scale(0.040000,-0.040000)" fill="#ffc1b9" stroke="none">
<path d="M2273 2638 c-42 -25 -41 -47 0 -76 17 -12 57 -42 87 -67 30 -24 59 -44 64 -45 5 0 -15 19 -45 43 -29 23 -71 58 -92 77 l-38 35 30 23 31 23 58 -45 c31 -25 72 -58 90 -72 18 -15 35 -25 38 -22 3 3 -17 22 -43 42 -26 20 -68 52 -93 71 -25 19 -47 34 -50 34 -3 0 -20 -10 -37 -21z"/>
<path d="M2942 2142 c51 -43 127 -105 163 -132 18 -14 57 -45 87 -70 164 -135 334 -272 415 -335 21 -16 56 -45 79 -65 45 -39 148 -121 179 -144 19 -14 19 -15 1 -35 -30 -33 -56 -25 -141 45 -44 35 -96 77 -115 92 -19 14 -51 40 -71 57 -20 16 -65 53 -99 80 -34 28 -81 66 -104 85 -24 19 -71 58 -106 85 -34 28 -81 66 -105 85 -24 19 -71 58 -105 85 -35 28 -86 69 -113 93 -28 23 -58 42 -66 42 -9 0 5 -15 31 -32 42 -30 94 -72 327 -263 40 -33 88 -71 106 -85 28 -21 145 -116 324 -263 25 -20 69 -54 96 -76 28 -21 56 -45 64 -54 19 -24 41 -21 75 9 35 31 31 42 -36 94 -39 31 -205 165 -337 273 -42 34 -74 59 -190 152 -21 17 -71 57 -111 90 -133 109 -164 135 -217 175 -60 46 -80 54 -31 12z"/>
</g>
</g>
  <g id="id8:id8" transform="matrix(1.25,0,0,1.25,0.0,0.0)"><g transform="translate(0.000000,213.600000) scale(0.040000,-0.040000)" fill="#859fa0" stroke="none">
</g>
</g>
  <g id="id9:id9" transform="matrix(1.25,0,0,1.25,0.0,0.0)"><g transform="translate(0.000000,213.600000) scale(0.040000,-0.040000)" fill="#828181" stroke="none">
<path d="M2653 3573 c9 -2 25 -2 35 0 9 3 1 5 -18 5 -19 0 -27 -2 -17 -5z"/>
<path d="M2594 3535 c-11 -16 -14 -109 -14 -513 l0 -493 -22 -9 c-18 -7 -19 -9 -5 -9 27 -1 20 -21 -9 -21 -14 0 -23 4 -20 9 8 12 -34 1 -61 -17 -28 -17 -56 -69 -40 -75 6 -2 7 -9 3 -16 -7 -11 -10 -11 -17 0 -6 10 -9 11 -9 2 0 -10 -94 -14 -427 -15 l-428 -3 423 -2 c270 -2 422 -7 422 -13 0 -6 -153 -10 -431 -10 -341 0 -429 3 -424 13 4 6 -5 -1 -19 -16 -32 -35 -32 -39 0 -74 14 -15 23 -22 19 -15 -5 9 83 12 424 12 278 0 431 -4 431 -10 0 -6 -151 -11 -417 -13 l-418 -2 423 -3 c329 -1 422 -5 422 -14 0 -10 3 -9 9 1 7 11 10 11 17 0 4 -8 2 -15 -5 -17 -8 -3 4 -19 29 -43 44 -41 88 -70 76 -50 -5 7 3 11 21 11 26 -1 26 -2 10 -14 -17 -13 -16 -14 3 -19 11 -3 20 -1 20 4 0 5 41 9 90 9 50 0 90 -4 90 -9 0 -5 9 -7 20 -4 19 5 20 6 3 19 -16 12 -16 13 10 14 16 0 26 -4 23 -9 -8 -12 34 -1 61 17 24 15 57 72 42 72 -5 0 -9 11 -9 25 0 28 20 35 21 8 0 -15 2 -15 9 2 12 28 12 47 0 40 -6 -4 -10 7 -10 25 0 18 4 29 10 25 12 -7 12 12 0 40 -7 17 -9 17 -9 3 -1 -28 -21 -21 -21 7 0 14 5 25 12 25 7 0 -7 18 -31 40 -45 42 -89 72 -77 51 5 -7 -2 -11 -18 -11 -29 0 -36 20 -8 21 13 0 12 2 -5 9 l-23 9 0 494 c0 392 -3 497 -13 511 -20 28 -134 29 -153 1z m16 -510 c0 -323 -3 -495 -10 -495 -7 0 -10 172 -10 495 0 323 3 495 10 495 7 0 10 -172 10 -495z m140 0 c0 -323 -3 -495 -10 -495 -7 0 -10 172 -10 495 0 323 3 495 10 495 7 0 10 -172 10 -495z m-230 -545 c0 -5 -7 -10 -16 -10 -8 0 -12 5 -9 10 3 6 10 10 16 10 5 0 9 -4 9 -10z m325 0 c3 -5 1 -10 -4 -10 -6 0 -11 5 -11 10 0 6 2 10 4 10 3 0 8 -4 11 -10z m-325 -340 c0 -5 -4 -10 -9 -10 -6 0 -13 5 -16 10 -3 6 1 10 9 10 9 0 16 -4 16 -10z m330 6 c0 -3 -4 -8 -10 -11 -5 -3 -10 -1 -10 4 0 6 5 11 10 11 6 0 10 -2 10 -4z"/>
<path d="M2643 2083 c15 -2 39 -2 55 0 15 2 2 4 -28 4 -30 0 -43 -2 -27 -4z"/>
</g>
</g>
  <g id="id10:id10" transform="matrix(1.25,0,0,1.25,0.0,0.0)"><g transform="translate(0.000000,213.600000) scale(0.040000,-0.040000)" fill="#6cb6b9" stroke="none">
</g>
</g>
  <g id="id11:id11" transform="matrix(1.25,0,0,1.25,0.0,0.0)"><g transform="translate(0.000000,213.600000) scale(0.040000,-0.040000)" fill="#6bb9bc" stroke="none">
</g>
</g>
  <g id="id12:id12" transform="matrix(1.25,0,0,1.25,0.0,0.0)"><g transform="translate(0.000000,213.600000) scale(0.040000,-0.040000)" fill="#6ababd" stroke="none">
<path d="M790 5239 c-146 -55 -313 -151 -400 -229 -19 -17 -39 -35 -45 -38 -5 -4 -37 -38 -71 -77 -54 -61 -78 -97 -144 -213 -25 -45 -65 -176 -74 -247 -3 -22 -10 -61 -15 -87 -7 -32 -7 -64 0 -95 5 -27 12 -70 15 -98 11 -101 87 -290 138 -343 13 -13 87 17 316 126 47 22 107 50 133 62 l48 21 -23 32 c-26 35 -82 148 -104 212 -44 123 -57 310 -29 441 18 85 19 90 56 172 16 35 29 66 29 69 0 20 108 163 179 236 46 48 80 87 75 86 -5 -1 -43 -14 -84 -30z"/>
<path d="M4507 5218 c117 -110 200 -236 272 -412 53 -129 52 -404 0 -533 -54 -131 -89 -200 -116 -227 l-22 -22 42 -19 c23 -10 85 -38 137 -63 190 -90 312 -142 321 -136 5 3 18 22 29 42 11 20 28 51 38 67 10 17 26 57 36 90 10 33 22 69 27 80 4 11 10 43 13 70 3 28 10 71 15 98 7 31 7 63 0 95 -5 26 -13 74 -18 107 -10 67 -47 186 -70 227 -9 14 -31 52 -50 85 -31 52 -141 188 -166 205 -6 4 -29 22 -50 41 -95 83 -252 173 -396 225 -47 18 -88 32 -92 32 -3 0 19 -24 50 -52z"/>
<path d="M2520 4454 c-161 -6 -352 -32 -550 -73 -275 -56 -574 -169 -815 -307 -183 -104 -271 -166 -425 -300 -127 -111 -276 -268 -327 -346 -15 -23 -34 -50 -42 -58 -20 -21 -74 -108 -94 -152 -10 -20 -21 -38 -25 -40 -9 -4 -54 -98 -73 -153 -7 -22 -19 -47 -26 -56 -7 -8 -13 -21 -13 -27 0 -7 -4 -20 -9 -30 -5 -9 -17 -46 -26 -82 -9 -36 -21 -75 -26 -88 -5 -13 -9 -37 -9 -53 0 -17 -5 -40 -12 -52 -6 -12 -15 -66 -19 -120 -3 -54 -12 -104 -18 -110 -15 -15 -15 -179 0 -194 6 -6 15 -56 18 -110 4 -54 13 -108 19 -120 7 -12 12 -35 12 -52 0 -16 4 -40 9 -53 5 -13 17 -52 26 -88 9 -36 21 -73 26 -82 5 -10 9 -23 9 -30 0 -6 6 -19 13 -27 7 -9 19 -34 26 -56 19 -55 64 -149 73 -153 4 -2 15 -20 25 -40 20 -44 74 -131 94 -152 8 -8 27 -35 42 -58 58 -90 289 -323 412 -417 43 -33 92 -74 109 -91 27 -28 109 -83 201 -136 72 -42 271 -138 287 -138 9 0 37 -9 62 -20 163 -69 427 -144 641 -181 340 -58 770 -58 1110 0 214 37 478 112 641 181 25 11 53 20 62 20 16 0 215 96 287 138 92 53 174 108 201 136 17 17 66 58 109 91 123 94 354 327 412 417 15 23 34 50 42 58 20 21 74 108 94 152 10 20 21 38 25 40 9 4 54 98 73 153 7 22 19 47 26 56 7 8 13 21 13 27 0 7 4 20 9 30 5 9 17 46 26 82 9 36 21 75 26 88 5 13 9 37 9 53 0 17 5 40 12 52 6 12 15 66 19 120 3 54 12 104 18 110 15 15 15 179 0 194 -6 6 -15 56 -18 110 -4 54 -13 108 -19 120 -7 12 -12 35 -12 52 0 16 -4 40 -9 53 -5 13 -17 52 -26 88 -9 36 -21 73 -26 82 -5 10 -9 23 -9 30 0 6 -6 19 -13 27 -7 9 -19 34 -26 56 -19 55 -64 149 -73 153 -4 2 -15 20 -25 40 -20 44 -74 131 -94 152 -8 8 -27 35 -42 58 -73 113 -307 342 -481 473 -103 77 -301 197 -411 248 -350 164 -639 245 -1030 290 -99 11 -377 20 -495 15z m370 -464 c455 -41 876 -199 1221 -458 80 -60 227 -201 286 -275 75 -93 133 -174 133 -187 0 -6 4 -10 9 -10 5 0 28 -39 51 -87 23 -49 51 -105 62 -127 11 -21 24 -53 28 -70 5 -17 16 -58 25 -91 18 -59 28 -109 45 -215 11 -73 11 -261 -1 -327 -21 -122 -27 -150 -39 -198 -7 -27 -16 -59 -20 -70 -4 -11 -13 -39 -21 -63 -7 -23 -18 -47 -26 -53 -7 -6 -13 -16 -13 -22 0 -18 -81 -177 -91 -177 -5 0 -9 -4 -9 -10 0 -5 -17 -34 -37 -62 -191 -268 -435 -471 -748 -623 -815 -394 -1810 -306 -2516 223 -80 60 -227 201 -286 275 -75 93 -133 174 -133 187 0 6 -4 10 -9 10 -5 0 -28 39 -51 87 -23 49 -46 95 -51 103 -15 24 -31 63 -39 95 -5 17 -16 57 -25 90 -36 123 -53 248 -53 375 0 127 17 252 53 375 9 33 20 74 25 91 4 17 17 49 28 70 11 22 39 78 62 127 23 48 46 87 51 87 5 0 9 4 9 10 0 13 58 94 133 187 59 74 206 215 286 275 460 344 1065 511 1661 458z"/>
</g>
</g>
  <g id="id13:id13" transform="matrix(1.25,0,0,1.25,0.0,0.0)"><g transform="translate(0.000000,213.600000) scale(0.040000,-0.040000)" fill="#40a0a4" stroke="none">
<path d="M1210 5331 c-8 -4 -51 -11 -95 -15 -44 -4 -111 -14 -150 -23 -66 -15 -75 -20 -148 -92 -122 -118 -205 -247 -261 -405 -49 -141 -46 -381 8 -531 39 -111 109 -235 132 -235 12 0 80 30 259 115 55 26 152 71 215 100 63 29 153 71 200 93 191 91 472 222 475 222 2 0 73 34 160 75 86 41 158 75 160 75 18 0 235 114 235 124 0 23 -187 203 -262 252 -140 91 -303 162 -468 205 -119 30 -430 58 -460 40z"/>
</g>
</g>
  <g id="id14:id14" transform="matrix(1.25,0,0,1.25,0.0,0.0)"><g transform="translate(0.000000,213.600000) scale(0.040000,-0.040000)" fill="#ff7967" stroke="none">
<path d="M2277 2627 l-27 -23 32 -30 c48 -44 136 -114 142 -114 4 0 21 10 40 22 l33 22 -33 26 c-18 14 -60 46 -93 73 -33 26 -61 47 -63 47 -2 -1 -15 -11 -31 -23z"/>
<path d="M2873 2136 l-32 -22 27 -18 c15 -9 56 -42 92 -72 36 -30 89 -74 118 -97 96 -76 128 -101 202 -162 40 -33 91 -75 114 -93 23 -17 66 -52 96 -77 30 -25 78 -63 105 -85 28 -21 86 -68 130 -104 85 -70 111 -78 141 -45 18 20 18 21 -1 35 -31 23 -134 105 -179 144 -23 20 -58 49 -79 65 -81 63 -251 200 -415 335 -30 25 -70 56 -87 70 -18 14 -67 53 -109 88 -42 34 -79 62 -83 62 -5 -1 -22 -11 -40 -24z"/>
</g>
</g>
  <g id="id15:id15" transform="matrix(1.25,0,0,1.25,0.0,0.0)"><g transform="translate(0.000000,213.600000) scale(0.040000,-0.040000)" fill="#7b7b7b" stroke="none">
<path d="M2616 3554 c-4 -9 -4 -19 -1 -22 3 -3 5 0 5 6 0 8 19 12 50 12 31 0 50 -4 50 -12 0 -6 2 -9 5 -6 3 3 3 13 -1 22 -4 12 -19 16 -54 16 -35 0 -50 -4 -54 -16z"/>
<path d="M2590 3025 c0 -323 3 -495 10 -495 7 0 10 172 10 495 0 323 -3 495 -10 495 -7 0 -10 -172 -10 -495z"/>
<path d="M2730 3025 c0 -323 3 -495 10 -495 7 0 10 172 10 495 0 323 -3 495 -10 495 -7 0 -10 -172 -10 -495z"/>
<path d="M2510 2490 c-20 -16 -22 -20 -7 -20 9 0 17 5 17 10 0 6 11 10 25 10 14 0 25 5 25 10 0 16 -33 11 -60 -10z"/>
<path d="M2770 2500 c0 -5 12 -10 26 -10 14 0 23 4 19 10 -3 6 -15 10 -26 10 -10 0 -19 -4 -19 -10z"/>
<path d="M2830 2480 c0 -5 5 -10 11 -10 5 0 7 5 4 10 -3 6 -8 10 -11 10 -2 0 -4 -4 -4 -10z"/>
<path d="M2410 2394 c0 -8 5 -12 10 -9 6 3 10 10 10 16 0 5 -4 9 -10 9 -5 0 -10 -7 -10 -16z"/>
<path d="M2910 2385 c0 -14 5 -25 10 -25 6 0 10 11 10 25 0 14 -4 25 -10 25 -5 0 -10 -11 -10 -25z"/>
<path d="M1535 2360 c-4 -7 140 -10 424 -10 281 0 431 3 431 10 0 7 -148 10 -424 10 -273 0 -427 -4 -431 -10z"/>
<path d="M2930 2310 c0 -18 4 -29 10 -25 6 3 10 15 10 25 0 10 -4 22 -10 25 -6 4 -10 -7 -10 -25z"/>
<path d="M1535 2260 c4 -6 158 -10 431 -10 276 0 424 3 424 10 0 7 -150 10 -431 10 -284 0 -428 -3 -424 -10z"/>
<path d="M2910 2235 c0 -14 5 -25 10 -25 6 0 10 11 10 25 0 14 -4 25 -10 25 -5 0 -10 -11 -10 -25z"/>
<path d="M2410 2226 c0 -9 5 -16 10 -16 6 0 10 4 10 9 0 6 -4 13 -10 16 -5 3 -10 -1 -10 -9z"/>
<path d="M2510 2130 c28 -22 46 -25 55 -10 4 6 -5 10 -19 10 -14 0 -26 5 -26 10 0 6 -8 10 -17 10 -15 0 -13 -4 7 -20z"/>
<path d="M2830 2139 c0 -5 5 -7 10 -4 6 3 10 8 10 11 0 2 -4 4 -10 4 -5 0 -10 -5 -10 -11z"/>
<path d="M2775 2120 c3 -5 12 -10 20 -10 8 0 17 5 20 10 4 6 -5 10 -20 10 -15 0 -24 -4 -20 -10z"/>
<path d="M2580 2100 c0 -6 37 -10 90 -10 53 0 90 4 90 10 0 6 -37 10 -90 10 -53 0 -90 -4 -90 -10z"/>
</g>
</g>
</svg>
